<svg width="400" height="400" version="1.1" xmlns="http://www.w3.org/2000/svg" desc="Created with imagetracer.js version 1.2.6" ><path fill="rgb(182,194,202)" stroke="rgb(182,194,202)" stroke-width="1" opacity="1" d="M 188.5 89 L 192 89.5 L 188.5 90 L 188.5 89 Z " /><path fill="rgb(182,194,202)" stroke="rgb(182,194,202)" stroke-width="1" opacity="1" d="M 208.5 89 L 212 89.5 L 208.5 90 L 208.5 89 Z " /><path fill="rgb(182,194,202)" stroke="rgb(182,194,202)" stroke-width="1" opacity="1" d="M 160.5 99 L 159.5 101 L 160.5 99 Z " /><path fill="rgb(182,194,202)" stroke="rgb(182,194,202)" stroke-width="1" opacity="1" d="M 239.5 99 L 240.5 101 L 239.5 99 Z " /><path fill="rgb(182,194,202)" stroke="rgb(182,194,202)" stroke-width="1" opacity="1" d="M 156.5 102 L 155.5 104 L 156.5 102 Z " /><path fill="rgb(182,194,202)" stroke="rgb(182,194,202)" stroke-width="1" opacity="1" d="M 243.5 102 L 244.5 104 L 243.5 102 Z " /><path fill="rgb(182,194,202)" stroke="rgb(182,194,202)" stroke-width="1" opacity="1" d="M 151.5 106 L 147.5 111 L 151.5 106 Z " /><path fill="rgb(182,194,202)" stroke="rgb(182,194,202)" stroke-width="1" opacity="1" d="M 248.5 106 L 252.5 111 L 248.5 106 Z " /><path fill="rgb(182,194,202)" stroke="rgb(182,194,202)" stroke-width="1" opacity="1" d="M 144.5 114 L 143.5 116 L 144.5 114 Z " /><path fill="rgb(182,194,202)" stroke="rgb(182,194,202)" stroke-width="1" opacity="1" d="M 255.5 114 L 256.5 116 L 255.5 114 Z " /><path fill="rgb(182,194,202)" stroke="rgb(182,194,202)" stroke-width="1" opacity="1" d="M 138.5 123 L 137.5 125 L 138.5 123 Z " /><path fill="rgb(182,194,202)" stroke="rgb(182,194,202)" stroke-width="1" opacity="1" d="M 261.5 123 L 262.5 125 L 261.5 123 Z " /><path fill="rgb(182,194,202)" stroke="rgb(182,194,202)" stroke-width="1" opacity="1" d="M 126.5 157 L 127 159.5 L 126 159.5 L 126.5 157 Z " /><path fill="rgb(182,194,202)" stroke="rgb(182,194,202)" stroke-width="1" opacity="1" d="M 273.5 157 L 274 159.5 L 273 159.5 L 273.5 157 Z " /><path fill="rgb(182,194,202)" stroke="rgb(182,194,202)" stroke-width="1" opacity="1" d="M 125.5 164 L 126 167.5 L 125 167.5 L 125.5 164 Z " /><path fill="rgb(182,194,202)" stroke="rgb(182,194,202)" stroke-width="1" opacity="1" d="M 274.5 164 L 275 167.5 L 274 167.5 L 274.5 164 Z " /><path fill="rgb(182,194,202)" stroke="rgb(182,194,202)" stroke-width="1" opacity="1" d="M 124.5 173 L 125 180.5 L 124 180.5 L 124.5 173 Z " /><path fill="rgb(182,194,202)" stroke="rgb(182,194,202)" stroke-width="1" opacity="1" d="M 275.5 173 L 276 180.5 L 275 180.5 L 275.5 173 Z " /><path fill="rgb(182,194,202)" stroke="rgb(182,194,202)" stroke-width="1" opacity="1" d="M 124.5 194 L 125 199.5 L 124 199.5 L 124.5 194 Z " /><path fill="rgb(182,194,202)" stroke="rgb(182,194,202)" stroke-width="1" opacity="1" d="M 275.5 194 L 276 199.5 L 275 199.5 L 275.5 194 Z " /><path fill="rgb(182,194,202)" stroke="rgb(182,194,202)" stroke-width="1" opacity="1" d="M 125.5 204 L 126 206.5 L 125 206.5 L 125.5 204 Z " /><path fill="rgb(182,194,202)" stroke="rgb(182,194,202)" stroke-width="1" opacity="1" d="M 274.5 204 L 275 206.5 L 274 206.5 L 274.5 204 Z " /><path fill="rgb(182,194,202)" stroke="rgb(182,194,202)" stroke-width="1" opacity="1" d="M 133.5 228 L 134.5 230 L 133.5 228 Z " /><path fill="rgb(182,194,202)" stroke="rgb(182,194,202)" stroke-width="1" opacity="1" d="M 266.5 228 L 265.5 230 L 266.5 228 Z " /><path fill="rgb(182,194,202)" stroke="rgb(182,194,202)" stroke-width="1" opacity="1" d="M 135.5 231 L 136.5 233 L 135.5 231 Z " /><path fill="rgb(182,194,202)" stroke="rgb(182,194,202)" stroke-width="1" opacity="1" d="M 264.5 231 L 263.5 233 L 264.5 231 Z " /><path fill="rgb(182,194,202)" stroke="rgb(182,194,202)" stroke-width="1" opacity="1" d="M 143.5 239 L 144.5 241 L 143.5 239 Z " /><path fill="rgb(182,194,202)" stroke="rgb(182,194,202)" stroke-width="1" opacity="1" d="M 256.5 239 L 255.5 241 L 256.5 239 Z " /><path fill="rgb(182,194,202)" stroke="rgb(182,194,202)" stroke-width="1" opacity="1" d="M 149.5 243 L 150.5 245 L 149.5 243 Z " /><path fill="rgb(182,194,202)" stroke="rgb(182,194,202)" stroke-width="1" opacity="1" d="M 250.5 243 L 249.5 245 L 250.5 243 Z " /><path fill="rgb(182,194,202)" stroke="rgb(182,194,202)" stroke-width="1" opacity="1" d="M 172.5 251 L 175 251.5 L 172.5 252 L 172.5 251 Z " /><path fill="rgb(182,194,202)" stroke="rgb(182,194,202)" stroke-width="1" opacity="1" d="M 225.5 251 L 228 251.5 L 225.5 252 L 225.5 251 Z " /><path fill="rgb(182,194,202)" stroke="rgb(182,194,202)" stroke-width="1" opacity="1" d="M 179.5 252 L 184 252.5 L 179.5 253 L 179.5 252 Z " /><path fill="rgb(182,194,202)" stroke="rgb(182,194,202)" stroke-width="1" opacity="1" d="M 216.5 252 L 221 252.5 L 216.5 253 L 216.5 252 Z " /><path fill="rgb(182,194,202)" stroke="rgb(182,194,202)" stroke-width="1" opacity="1" d="M 198.5 253 L 202 253.5 L 198.5 254 L 198.5 253 Z " /><path fill="rgb(182,194,202)" stroke="rgb(182,194,202)" stroke-width="1" opacity="1" d="M 186.5 278 L 192 278.5 L 186.5 279 L 186.5 278 Z " /><path fill="rgb(182,194,202)" stroke="rgb(182,194,202)" stroke-width="1" opacity="1" d="M 208.5 278 L 214 278.5 L 208.5 279 L 208.5 278 Z " /><path fill="rgb(182,194,202)" stroke="rgb(182,194,202)" stroke-width="1" opacity="1" d="M 179.5 279 L 182 279.5 L 179.5 280 L 179.5 279 Z " /><path fill="rgb(182,194,202)" stroke="rgb(182,194,202)" stroke-width="1" opacity="1" d="M 218.5 279 L 221 279.5 L 218.5 280 L 218.5 279 Z " /><path fill="rgb(182,194,202)" stroke="rgb(182,194,202)" stroke-width="1" opacity="1" d="M 135.5 295 L 134.5 297 L 135.5 295 Z " /><path fill="rgb(182,194,202)" stroke="rgb(182,194,202)" stroke-width="1" opacity="1" d="M 264.5 295 L 265.5 297 L 264.5 295 Z " /><path fill="rgb(182,194,202)" stroke="rgb(182,194,202)" stroke-width="1" opacity="1" d="M 130.5 298 L 129.5 300 L 130.5 298 Z " /><path fill="rgb(182,194,202)" stroke="rgb(182,194,202)" stroke-width="1" opacity="1" d="M 269.5 298 L 270.5 300 L 269.5 298 Z " /><path fill="rgb(182,194,202)" stroke="rgb(182,194,202)" stroke-width="1" opacity="1" d="M 127.5 300 L 126.5 302 L 127.5 300 Z " /><path fill="rgb(182,194,202)" stroke="rgb(182,194,202)" stroke-width="1" opacity="1" d="M 272.5 300 L 273.5 302 L 272.5 300 Z " /><path fill="rgb(182,194,202)" stroke="rgb(182,194,202)" stroke-width="1" opacity="1" d="M 123.5 303 L 122.5 305 L 123.5 303 Z " /><path fill="rgb(182,194,202)" stroke="rgb(182,194,202)" stroke-width="1" opacity="1" d="M 276.5 303 L 277.5 305 L 276.5 303 Z " /><path fill="rgb(182,194,202)" stroke="rgb(182,194,202)" stroke-width="1" opacity="1" d="M 119.5 306 L 117.5 309 L 119.5 306 Z " /><path fill="rgb(182,194,202)" stroke="rgb(182,194,202)" stroke-width="1" opacity="1" d="M 280.5 306 L 282.5 309 L 280.5 306 Z " /><path fill="rgb(182,194,202)" stroke="rgb(182,194,202)" stroke-width="1" opacity="1" d="M 112.5 312 L 105.5 320 L 112.5 312 Z " /><path fill="rgb(182,194,202)" stroke="rgb(182,194,202)" stroke-width="1" opacity="1" d="M 287.5 312 L 294.5 320 L 287.5 312 Z " /><path fill="rgb(182,194,202)" stroke="rgb(182,194,202)" stroke-width="1" opacity="1" d="M 101.5 324 L 99.5 327 L 101.5 324 Z " /><path fill="rgb(182,194,202)" stroke="rgb(182,194,202)" stroke-width="1" opacity="1" d="M 298.5 324 L 300.5 327 L 298.5 324 Z " /><path fill="rgb(182,194,202)" stroke="rgb(182,194,202)" stroke-width="1" opacity="1" d="M 97.5 329 L 95.5 332 L 97.5 329 Z " /><path fill="rgb(182,194,202)" stroke="rgb(182,194,202)" stroke-width="1" opacity="1" d="M 302.5 329 L 304.5 332 L 302.5 329 Z " /><path fill="rgb(182,194,202)" stroke="rgb(182,194,202)" stroke-width="1" opacity="1" d="M 94.5 333 L 93.5 335 L 94.5 333 Z " /><path fill="rgb(182,194,202)" stroke="rgb(182,194,202)" stroke-width="1" opacity="1" d="M 305.5 333 L 306.5 335 L 305.5 333 Z " /><path fill="rgb(182,194,202)" stroke="rgb(182,194,202)" stroke-width="1" opacity="1" d="M 90.5 339 L 89.5 341 L 90.5 339 Z " /><path fill="rgb(182,194,202)" stroke="rgb(182,194,202)" stroke-width="1" opacity="1" d="M 309.5 339 L 310.5 341 L 309.5 339 Z " /><path fill="rgb(182,194,202)" stroke="rgb(182,194,202)" stroke-width="1" opacity="1" d="M 70.5 387 L 71 389.5 L 70 389.5 L 70.5 387 Z " /><path fill="rgb(182,194,202)" stroke="rgb(182,194,202)" stroke-width="1" opacity="1" d="M 329.5 387 L 330 389.5 L 329 389.5 L 329.5 387 Z " /><path fill="rgb(182,194,202)" stroke="rgb(182,194,202)" stroke-width="1" opacity="1" d="M 69.5 392 L 70 394.5 L 69 394.5 L 69.5 392 Z " /><path fill="rgb(182,194,202)" stroke="rgb(182,194,202)" stroke-width="1" opacity="1" d="M 330.5 392 L 331 394.5 L 330 394.5 L 330.5 392 Z " /><path fill="rgb(204,214,220)" stroke="rgb(204,214,220)" stroke-width="1" opacity="1" d="M 153.5 104 L 152.5 106 L 153.5 104 Z " /><path fill="rgb(204,214,220)" stroke="rgb(204,214,220)" stroke-width="1" opacity="1" d="M 246.5 104 L 247.5 106 L 246.5 104 Z " /><path fill="rgb(204,214,220)" stroke="rgb(204,214,220)" stroke-width="1" opacity="1" d="M 146.5 111 L 145.5 113 L 146.5 111 Z " /><path fill="rgb(204,214,220)" stroke="rgb(204,214,220)" stroke-width="1" opacity="1" d="M 253.5 111 L 254.5 113 L 253.5 111 Z " /><path fill="rgb(204,214,220)" stroke="rgb(204,214,220)" stroke-width="1" opacity="1" d="M 137.5 234 L 141.5 239 L 137.5 234 Z " /><path fill="rgb(204,214,220)" stroke="rgb(204,214,220)" stroke-width="1" opacity="1" d="M 262.5 234 L 257.5 240 L 262.5 234 Z " /><path fill="rgb(204,214,220)" stroke="rgb(204,214,220)" stroke-width="1" opacity="1" d="M 193.5 253 L 198 253.5 L 193.5 254 L 193.5 253 Z " /><path fill="rgb(204,214,220)" stroke="rgb(204,214,220)" stroke-width="1" opacity="1" d="M 202.5 253 L 207 253.5 L 202.5 254 L 202.5 253 Z " /><path fill="rgb(204,214,220)" stroke="rgb(204,214,220)" stroke-width="1" opacity="1" d="M 32.5 294 L 33.5 296 L 32.5 294 Z " /><path fill="rgb(204,214,220)" stroke="rgb(204,214,220)" stroke-width="1" opacity="1" d="M 115.5 309 L 113.5 312 L 115.5 309 Z " /><path fill="rgb(204,214,220)" stroke="rgb(204,214,220)" stroke-width="1" opacity="1" d="M 284.5 309 L 286.5 312 L 284.5 309 Z " /><path fill="rgb(204,214,220)" stroke="rgb(204,214,220)" stroke-width="1" opacity="1" d="M 104.5 320 L 102.5 323 L 104.5 320 Z " /><path fill="rgb(204,214,220)" stroke="rgb(204,214,220)" stroke-width="1" opacity="1" d="M 295.5 320 L 297.5 323 L 295.5 320 Z " /><path fill="rgb(204,214,220)" stroke="rgb(204,214,220)" stroke-width="1" opacity="1" d="M 98.5 327 L 97.5 329 L 98.5 327 Z " /><path fill="rgb(204,214,220)" stroke="rgb(204,214,220)" stroke-width="1" opacity="1" d="M 301.5 327 L 302.5 329 L 301.5 327 Z " /><path fill="rgb(204,214,221)" stroke="rgb(204,214,221)" stroke-width="1" opacity="1" d="M 0 0 L 400 0 L 400 400 L 332.5 400 L 332 398.5 L 328 378.5 Q 323.2 360.8 315 346.5 Q 302.7 324.8 284.5 309 Q 264.2 290.8 234.5 282 L 214.5 278 L 185.5 278 L 165.5 282 L 138.5 293 Q 117.3 304.8 102 322.5 Q 88.9 337.4 80 356.5 L 72 378.5 L 68 400 L 0.5 400 L 0 399.5 L 0 0 Z M 188 89 L 170 94 L 154 104 Q 140 115 133 133 L 127 152 L 126 163 L 125 164 L 125 172 L 124 173 L 124 201 L 125 202 L 126 213 Q 129 226 137 235 Q 145 243 157 248 L 172 252 L 193 253 L 194 254 L 222 253 L 223 252 L 234 251 Q 248 248 258 240 Q 266 233 271 222 L 276 201 L 276 172 L 275 171 L 273 152 Q 268 128 255 113 Q 245 101 231 94 L 213 89 L 188 89 Z " /><path fill="rgb(101,119,134)" stroke="rgb(101,119,134)" stroke-width="1" opacity="1" d="M 192.5 89 L 207.5 89 L 228.5 94 Q 244.8 100.7 255 113.5 L 263 125.5 L 270 142.5 L 275 168.5 L 276 193.5 L 275 194.5 L 274 209.5 L 271 219.5 Q 266.5 231.5 257.5 239 L 246.5 246 L 230.5 251 L 216.5 252 L 215.5 253 L 184.5 253 L 183.5 252 L 169.5 251 L 153.5 246 Q 143.6 241.4 137 233.5 L 127 213.5 L 125 203.5 L 125 194.5 L 124 193.5 L 124 181.5 L 125 180.5 L 126 160.5 L 131 139.5 Q 138.4 117.4 154.5 104 L 171.5 94 L 192.5 89 Z " /><path fill="rgb(101,119,134)" stroke="rgb(101,119,134)" stroke-width="1" opacity="1" d="M 192.5 278 L 217.5 279 L 232.5 282 L 247.5 287 Q 278 300 298 323.5 Q 312 339.5 321 360.5 Q 328.8 377.9 331 400 L 69.5 400 Q 68.5 400 69 395.5 Q 79.8 339.3 116.5 309 Q 132.2 295.7 152.5 287 L 171.5 281 L 182.5 279 L 191.5 279 L 192.5 278 Z " /></svg>